<?xml version="1.0" encoding="utf-8" standalone="no"?>
<!DOCTYPE svg PUBLIC "-//W3C//DTD SVG 1.1//EN"
  "http://www.w3.org/Graphics/SVG/1.1/DTD/svg11.dtd">
<svg xmlns:xlink="http://www.w3.org/1999/xlink" width="669.6pt" height="219.6pt" viewBox="0 0 669.6 219.6" xmlns="http://www.w3.org/2000/svg" version="1.1">
 <metadata>
  <rdf:RDF xmlns:dc="http://purl.org/dc/elements/1.1/" xmlns:cc="http://creativecommons.org/ns#" xmlns:rdf="http://www.w3.org/1999/02/22-rdf-syntax-ns#">
   <cc:Work>
    <dc:type rdf:resource="http://purl.org/dc/dcmitype/StillImage"/>
    <dc:date>2026-10-02T13:46:55.307681</dc:date>
    <dc:format>image/svg+xml</dc:format>
    <dc:creator>
     <cc:Agent>
      <dc:title>Matplotlib v3.11.2, https://matplotlib.org/</dc:title>
     </cc:Agent>
    </dc:creator>
   </cc:Work>
  </rdf:RDF>
 </metadata>
 <defs>
  <style type="text/css">*{stroke-linejoin: round; stroke-linecap: butt}</style>
 </defs>
 <g id="figure_1">
  <g id="patch_1">
   <path d="M 0 219.6
L 669.6 219.6
L 669.6 0
L 0 0
z
" style="fill: #ffffff"/>
  </g>
  <g id="axes_1">
   <g id="patch_2">
    <path d="M 48.58 164.026
L 217.897701 164.026
L 217.897701 12.170225
L 48.58 12.170225
z
" style="fill: #ffffff"/>
   </g>
   <g id="matplotlib.axis_1">
    <g id="xtick_1">
     <g id="line2d_1">
      <defs>
       <path id="m39f103ebae" d="M 0 0
L 0 3
" style="stroke: #bac4ce; stroke-width: 0.8"/>
      </defs>
      <g>
       <use xlink:href="#m39f103ebae" x="55.494992" y="164.026" style="fill: #bac4ce; stroke: #bac4ce; stroke-width: 0.8"/>
      </g>
     </g>
     <g id="text_1">
      <text style="font-size: 10px; font-family: 'STIXGeneral', serif; text-anchor: middle" x="55.494992" y="178.026" transform="rotate(-0 55.494992 178.026)">0.0</text>
     </g>
    </g>
    <g id="xtick_2">
     <g id="line2d_2">
      <g>
       <use xlink:href="#m39f103ebae" x="94.171604" y="164.026" style="fill: #bac4ce; stroke: #bac4ce; stroke-width: 0.8"/>
      </g>
     </g>
     <g id="text_2">
      <text style="font-size: 10px; font-family: 'STIXGeneral', serif; text-anchor: middle" x="94.171604" y="178.026" transform="rotate(-0 94.171604 178.026)">2.5</text>
     </g>
    </g>
    <g id="xtick_3">
     <g id="line2d_3">
      <g>
       <use xlink:href="#m39f103ebae" x="132.848216" y="164.026" style="fill: #bac4ce; stroke: #bac4ce; stroke-width: 0.8"/>
      </g>
     </g>
     <g id="text_3">
      <text style="font-size: 10px; font-family: 'STIXGeneral', serif; text-anchor: middle" x="132.848216" y="178.026" transform="rotate(-0 132.848216 178.026)">5.0</text>
     </g>
    </g>
    <g id="xtick_4">
     <g id="line2d_4">
      <g>
       <use xlink:href="#m39f103ebae" x="171.524829" y="164.026" style="fill: #bac4ce; stroke: #bac4ce; stroke-width: 0.8"/>
      </g>
     </g>
     <g id="text_4">
      <text style="font-size: 10px; font-family: 'STIXGeneral', serif; text-anchor: middle" x="171.524829" y="178.026" transform="rotate(-0 171.524829 178.026)">7.5</text>
     </g>
    </g>
    <g id="xtick_5">
     <g id="line2d_5">
      <g>
       <use xlink:href="#m39f103ebae" x="210.201441" y="164.026" style="fill: #bac4ce; stroke: #bac4ce; stroke-width: 0.8"/>
      </g>
     </g>
     <g id="text_5">
      <text style="font-size: 10px; font-family: 'STIXGeneral', serif; text-anchor: middle" x="210.201441" y="178.026" transform="rotate(-0 210.201441 178.026)">10.0</text>
     </g>
    </g>
    <g id="text_6">
     <text style="font-size: 10px; font-family: 'STIXGeneral', serif; text-anchor: middle" x="133.23885" y="192.026" transform="rotate(-0 133.23885 192.026)">Query recovery updates (thousands)</text>
    </g>
   </g>
   <g id="matplotlib.axis_2">
    <g id="ytick_1">
     <g id="line2d_6">
      <path d="M 48.58 164.026
L 217.897701 164.026
" clip-path="url(#pacb2636613)" style="fill: none; stroke: #dce1e7; stroke-width: 0.6; stroke-linecap: square"/>
     </g>
     <g id="line2d_7">
      <defs>
       <path id="md120cf5899" d="M 0 0
L -3 0
" style="stroke: #bac4ce; stroke-width: 0.8"/>
      </defs>
      <g>
       <use xlink:href="#md120cf5899" x="48.58" y="164.026" style="fill: #bac4ce; stroke: #bac4ce; stroke-width: 0.8"/>
      </g>
     </g>
     <g id="text_7">
      <text style="font-size: 10px; font-family: 'STIXGeneral', serif; text-anchor: end" x="42.08" y="167.776" transform="rotate(-0 42.08 167.776)">0.00</text>
     </g>
    </g>
    <g id="ytick_2">
     <g id="line2d_8">
      <path d="M 48.58 136.29459
L 217.897701 136.29459
" clip-path="url(#pacb2636613)" style="fill: none; stroke: #dce1e7; stroke-width: 0.6; stroke-linecap: square"/>
     </g>
     <g id="line2d_9">
      <g>
       <use xlink:href="#md120cf5899" x="48.58" y="136.29459" style="fill: #bac4ce; stroke: #bac4ce; stroke-width: 0.8"/>
      </g>
     </g>
     <g id="text_8">
      <text style="font-size: 10px; font-family: 'STIXGeneral', serif; text-anchor: end" x="42.08" y="140.04459" transform="rotate(-0 42.08 140.04459)">0.05</text>
     </g>
    </g>
    <g id="ytick_3">
     <g id="line2d_10">
      <path d="M 48.58 108.56318
L 217.897701 108.56318
" clip-path="url(#pacb2636613)" style="fill: none; stroke: #dce1e7; stroke-width: 0.6; stroke-linecap: square"/>
     </g>
     <g id="line2d_11">
      <g>
       <use xlink:href="#md120cf5899" x="48.58" y="108.56318" style="fill: #bac4ce; stroke: #bac4ce; stroke-width: 0.8"/>
      </g>
     </g>
     <g id="text_9">
      <text style="font-size: 10px; font-family: 'STIXGeneral', serif; text-anchor: end" x="42.08" y="112.31318" transform="rotate(-0 42.08 112.31318)">0.10</text>
     </g>
    </g>
    <g id="ytick_4">
     <g id="line2d_12">
      <path d="M 48.58 80.83177
L 217.897701 80.83177
" clip-path="url(#pacb2636613)" style="fill: none; stroke: #dce1e7; stroke-width: 0.6; stroke-linecap: square"/>
     </g>
     <g id="line2d_13">
      <g>
       <use xlink:href="#md120cf5899" x="48.58" y="80.83177" style="fill: #bac4ce; stroke: #bac4ce; stroke-width: 0.8"/>
      </g>
     </g>
     <g id="text_10">
      <text style="font-size: 10px; font-family: 'STIXGeneral', serif; text-anchor: end" x="42.08" y="84.58177" transform="rotate(-0 42.08 84.58177)">0.15</text>
     </g>
    </g>
    <g id="ytick_5">
     <g id="line2d_14">
      <path d="M 48.58 53.10036
L 217.897701 53.10036
" clip-path="url(#pacb2636613)" style="fill: none; stroke: #dce1e7; stroke-width: 0.6; stroke-linecap: square"/>
     </g>
     <g id="line2d_15">
      <g>
       <use xlink:href="#md120cf5899" x="48.58" y="53.10036" style="fill: #bac4ce; stroke: #bac4ce; stroke-width: 0.8"/>
      </g>
     </g>
     <g id="text_11">
      <text style="font-size: 10px; font-family: 'STIXGeneral', serif; text-anchor: end" x="42.08" y="56.85036" transform="rotate(-0 42.08 56.85036)">0.20</text>
     </g>
    </g>
    <g id="ytick_6">
     <g id="line2d_16">
      <path d="M 48.58 25.36895
L 217.897701 25.36895
" clip-path="url(#pacb2636613)" style="fill: none; stroke: #dce1e7; stroke-width: 0.6; stroke-linecap: square"/>
     </g>
     <g id="line2d_17">
      <g>
       <use xlink:href="#md120cf5899" x="48.58" y="25.36895" style="fill: #bac4ce; stroke: #bac4ce; stroke-width: 0.8"/>
      </g>
     </g>
     <g id="text_12">
      <text style="font-size: 10px; font-family: 'STIXGeneral', serif; text-anchor: end" x="42.08" y="29.11895" transform="rotate(-0 42.08 29.11895)">0.25</text>
     </g>
    </g>
    <g id="text_13">
     <text style="font-size: 10px; font-family: 'STIXGeneral', serif; text-anchor: middle" x="18.08" y="88.098112" transform="rotate(-90 18.08 88.098112)">Native validation loss</text>
    </g>
   </g>
   <g id="line2d_18">
    <path d="M 63.230314 29.240369
L 70.965637 35.613473
L 78.700959 30.607678
L 86.436282 34.232528
L 94.171604 35.722889
L 101.906927 38.13155
L 109.642249 36.233921
L 117.377571 39.581569
L 125.112894 44.00691
L 132.848216 43.649409
L 140.583539 46.402015
L 148.318861 46.473153
L 156.054184 45.216394
L 163.789506 46.689187
L 171.524829 48.440934
L 179.260151 49.404764
L 186.995474 50.190042
L 194.730796 50.46427
L 202.466119 51.537005
L 210.201441 50.589138
" clip-path="url(#pacb2636613)" style="fill: none; stroke: #1f5f94; stroke-width: 1.5; stroke-linecap: square"/>
    <defs>
     <path id="mc4d608aba7" d="M 0 2.25
C 0.596707 2.25 1.169055 2.012926 1.59099 1.59099
C 2.012926 1.169055 2.25 0.596707 2.25 0
C 2.25 -0.596707 2.012926 -1.169055 1.59099 -1.59099
C 1.169055 -2.012926 0.596707 -2.25 0 -2.25
C -0.596707 -2.25 -1.169055 -2.012926 -1.59099 -1.59099
C -2.012926 -1.169055 -2.25 -0.596707 -2.25 0
C -2.25 0.596707 -2.012926 1.169055 -1.59099 1.59099
C -1.169055 2.012926 -0.596707 2.25 0 2.25
z
" style="stroke: #1f5f94"/>
    </defs>
    <g clip-path="url(#pacb2636613)">
     <use xlink:href="#mc4d608aba7" x="63.230314" y="29.240369" style="fill: #1f5f94; stroke: #1f5f94"/>
     <use xlink:href="#mc4d608aba7" x="70.965637" y="35.613473" style="fill: #1f5f94; stroke: #1f5f94"/>
     <use xlink:href="#mc4d608aba7" x="78.700959" y="30.607678" style="fill: #1f5f94; stroke: #1f5f94"/>
     <use xlink:href="#mc4d608aba7" x="86.436282" y="34.232528" style="fill: #1f5f94; stroke: #1f5f94"/>
     <use xlink:href="#mc4d608aba7" x="94.171604" y="35.722889" style="fill: #1f5f94; stroke: #1f5f94"/>
     <use xlink:href="#mc4d608aba7" x="101.906927" y="38.13155" style="fill: #1f5f94; stroke: #1f5f94"/>
     <use xlink:href="#mc4d608aba7" x="109.642249" y="36.233921" style="fill: #1f5f94; stroke: #1f5f94"/>
     <use xlink:href="#mc4d608aba7" x="117.377571" y="39.581569" style="fill: #1f5f94; stroke: #1f5f94"/>
     <use xlink:href="#mc4d608aba7" x="125.112894" y="44.00691" style="fill: #1f5f94; stroke: #1f5f94"/>
     <use xlink:href="#mc4d608aba7" x="132.848216" y="43.649409" style="fill: #1f5f94; stroke: #1f5f94"/>
     <use xlink:href="#mc4d608aba7" x="140.583539" y="46.402015" style="fill: #1f5f94; stroke: #1f5f94"/>
     <use xlink:href="#mc4d608aba7" x="148.318861" y="46.473153" style="fill: #1f5f94; stroke: #1f5f94"/>
     <use xlink:href="#mc4d608aba7" x="156.054184" y="45.216394" style="fill: #1f5f94; stroke: #1f5f94"/>
     <use xlink:href="#mc4d608aba7" x="163.789506" y="46.689187" style="fill: #1f5f94; stroke: #1f5f94"/>
     <use xlink:href="#mc4d608aba7" x="171.524829" y="48.440934" style="fill: #1f5f94; stroke: #1f5f94"/>
     <use xlink:href="#mc4d608aba7" x="179.260151" y="49.404764" style="fill: #1f5f94; stroke: #1f5f94"/>
     <use xlink:href="#mc4d608aba7" x="186.995474" y="50.190042" style="fill: #1f5f94; stroke: #1f5f94"/>
     <use xlink:href="#mc4d608aba7" x="194.730796" y="50.46427" style="fill: #1f5f94; stroke: #1f5f94"/>
     <use xlink:href="#mc4d608aba7" x="202.466119" y="51.537005" style="fill: #1f5f94; stroke: #1f5f94"/>
     <use xlink:href="#mc4d608aba7" x="210.201441" y="50.589138" style="fill: #1f5f94; stroke: #1f5f94"/>
    </g>
   </g>
   <g id="line2d_19">
    <path d="M 56.276259 54.829041
L 57.823324 40.65146
L 59.370388 31.543213
L 60.917453 28.440486
L 62.464517 31.285006
L 64.011582 35.079633
L 65.558646 33.405567
L 67.105711 33.778301
L 68.652775 31.994233
L 70.19984 29.558551
L 71.746904 31.745894
L 73.293969 30.252926
L 74.841033 32.723117
L 76.388098 34.741334
L 77.935162 34.15403
L 79.482227 42.059649
L 81.029291 39.654604
L 82.576356 37.452256
L 84.12342 37.850403
L 85.670485 38.671351
L 87.217549 38.937736
L 88.764614 39.639492
L 90.311678 40.493333
L 91.858743 36.342659
L 93.405807 39.102855
L 94.952872 41.871646
L 96.499936 42.804703
L 98.047001 43.767591
L 99.594065 38.017134
L 101.14113 40.374257
L 102.688194 40.173922
L 104.235259 41.826075
L 105.782323 41.66937
L 107.329388 44.123837
L 108.876452 44.239517
L 110.423517 40.93327
L 111.970581 44.895731
L 113.517646 45.112569
L 115.06471 50.476768
L 116.611775 45.342651
L 118.158839 46.909182
L 119.705904 48.866877
L 121.252968 45.070134
L 122.800033 46.509692
L 124.347097 50.967793
L 125.894162 48.317773
L 127.441226 47.539594
L 128.988291 45.216463
L 130.535355 47.643224
L 132.08242 48.098591
L 133.629484 50.67166
L 135.176549 48.607546
L 136.723613 46.376533
L 138.270678 46.604446
L 139.817742 50.46297
L 141.364807 51.333039
L 142.911871 50.621767
L 144.458936 49.33329
L 146.006 51.234645
L 147.553065 53.821255
L 149.100129 57.025252
L 150.647194 55.647456
L 152.194258 53.293031
L 153.741323 54.430423
L 155.288387 53.592958
L 156.835452 56.255632
L 158.382516 51.556064
L 159.929581 56.694961
L 161.476645 55.331128
L 163.02371 56.564067
L 164.570774 58.466963
L 166.117839 57.418672
L 167.664903 55.550161
L 169.211968 57.256091
L 170.759032 56.038971
L 172.306097 54.912489
L 173.853161 54.497308
L 175.400226 54.326293
L 176.94729 55.538933
L 178.494355 56.025516
L 180.041419 57.399944
L 181.588484 54.100834
L 183.135548 58.366006
L 184.682613 58.170929
L 186.229677 59.872999
L 187.776742 62.861745
L 189.323806 57.527517
L 190.870871 57.864014
L 192.417935 57.306521
L 193.965 57.19959
L 195.512064 59.966298
L 197.059129 59.031534
L 198.606193 62.361273
L 200.153258 57.186685
L 201.700322 59.883491
L 203.247386 60.663608
L 204.794451 60.158587
L 206.341515 58.987695
L 207.88858 60.629388
L 209.435644 57.640804
" clip-path="url(#pacb2636613)" style="fill: none; stroke: #94a1ad; stroke-opacity: 0.7; stroke-linecap: square"/>
   </g>
   <g id="patch_3">
    <path d="M 48.58 164.026
L 48.58 12.170225
" style="fill: none; stroke: #bac4ce; stroke-width: 0.8; stroke-linejoin: miter; stroke-linecap: square"/>
   </g>
   <g id="patch_4">
    <path d="M 48.58 164.026
L 217.897701 164.026
" style="fill: none; stroke: #bac4ce; stroke-width: 0.8; stroke-linejoin: miter; stroke-linecap: square"/>
   </g>
   <g id="legend_1">
    <g id="line2d_20">
     <path d="M 54.88 153.526
L 61.88 153.526
L 68.88 153.526
" style="fill: none; stroke: #94a1ad; stroke-opacity: 0.7; stroke-linecap: square"/>
    </g>
    <g id="text_14">
     <text style="font-size: 7px; font-family: 'STIXGeneral', serif; text-anchor: start" x="74.48" y="155.976" transform="rotate(-0 74.48 155.976)">Train: median / 100 updates</text>
    </g>
   </g>
  </g>
  <g id="axes_2">
   <g id="patch_5">
    <path d="M 268.18 164.026
L 437.497701 164.026
L 437.497701 12.170225
L 268.18 12.170225
z
" style="fill: #ffffff"/>
   </g>
   <g id="matplotlib.axis_3">
    <g id="xtick_6">
     <g id="line2d_21">
      <g>
       <use xlink:href="#m39f103ebae" x="275.094992" y="164.026" style="fill: #bac4ce; stroke: #bac4ce; stroke-width: 0.8"/>
      </g>
     </g>
     <g id="text_15">
      <text style="font-size: 10px; font-family: 'STIXGeneral', serif; text-anchor: middle" x="275.094992" y="178.026" transform="rotate(-0 275.094992 178.026)">0.0</text>
     </g>
    </g>
    <g id="xtick_7">
     <g id="line2d_22">
      <g>
       <use xlink:href="#m39f103ebae" x="313.771604" y="164.026" style="fill: #bac4ce; stroke: #bac4ce; stroke-width: 0.8"/>
      </g>
     </g>
     <g id="text_16">
      <text style="font-size: 10px; font-family: 'STIXGeneral', serif; text-anchor: middle" x="313.771604" y="178.026" transform="rotate(-0 313.771604 178.026)">2.5</text>
     </g>
    </g>
    <g id="xtick_8">
     <g id="line2d_23">
      <g>
       <use xlink:href="#m39f103ebae" x="352.448216" y="164.026" style="fill: #bac4ce; stroke: #bac4ce; stroke-width: 0.8"/>
      </g>
     </g>
     <g id="text_17">
      <text style="font-size: 10px; font-family: 'STIXGeneral', serif; text-anchor: middle" x="352.448216" y="178.026" transform="rotate(-0 352.448216 178.026)">5.0</text>
     </g>
    </g>
    <g id="xtick_9">
     <g id="line2d_24">
      <g>
       <use xlink:href="#m39f103ebae" x="391.124829" y="164.026" style="fill: #bac4ce; stroke: #bac4ce; stroke-width: 0.8"/>
      </g>
     </g>
     <g id="text_18">
      <text style="font-size: 10px; font-family: 'STIXGeneral', serif; text-anchor: middle" x="391.124829" y="178.026" transform="rotate(-0 391.124829 178.026)">7.5</text>
     </g>
    </g>
    <g id="xtick_10">
     <g id="line2d_25">
      <g>
       <use xlink:href="#m39f103ebae" x="429.801441" y="164.026" style="fill: #bac4ce; stroke: #bac4ce; stroke-width: 0.8"/>
      </g>
     </g>
     <g id="text_19">
      <text style="font-size: 10px; font-family: 'STIXGeneral', serif; text-anchor: middle" x="429.801441" y="178.026" transform="rotate(-0 429.801441 178.026)">10.0</text>
     </g>
    </g>
    <g id="text_20">
     <text style="font-size: 10px; font-family: 'STIXGeneral', serif; text-anchor: middle" x="352.83885" y="192.026" transform="rotate(-0 352.83885 192.026)">Query recovery updates (thousands)</text>
    </g>
   </g>
   <g id="matplotlib.axis_4">
    <g id="ytick_7">
     <g id="line2d_26">
      <path d="M 268.18 164.026
L 437.497701 164.026
" clip-path="url(#pce1b5482a9)" style="fill: none; stroke: #dce1e7; stroke-width: 0.6; stroke-linecap: square"/>
     </g>
     <g id="line2d_27">
      <g>
       <use xlink:href="#md120cf5899" x="268.18" y="164.026" style="fill: #bac4ce; stroke: #bac4ce; stroke-width: 0.8"/>
      </g>
     </g>
     <g id="text_21">
      <text style="font-size: 10px; font-family: 'STIXGeneral', serif; text-anchor: end" x="261.68" y="167.776" transform="rotate(-0 261.68 167.776)">0.00</text>
     </g>
    </g>
    <g id="ytick_8">
     <g id="line2d_28">
      <path d="M 268.18 130.807477
L 437.497701 130.807477
" clip-path="url(#pce1b5482a9)" style="fill: none; stroke: #dce1e7; stroke-width: 0.6; stroke-linecap: square"/>
     </g>
     <g id="line2d_29">
      <g>
       <use xlink:href="#md120cf5899" x="268.18" y="130.807477" style="fill: #bac4ce; stroke: #bac4ce; stroke-width: 0.8"/>
      </g>
     </g>
     <g id="text_22">
      <text style="font-size: 10px; font-family: 'STIXGeneral', serif; text-anchor: end" x="261.68" y="134.557477" transform="rotate(-0 261.68 134.557477)">0.05</text>
     </g>
    </g>
    <g id="ytick_9">
     <g id="line2d_30">
      <path d="M 268.18 97.588954
L 437.497701 97.588954
" clip-path="url(#pce1b5482a9)" style="fill: none; stroke: #dce1e7; stroke-width: 0.6; stroke-linecap: square"/>
     </g>
     <g id="line2d_31">
      <g>
       <use xlink:href="#md120cf5899" x="268.18" y="97.588954" style="fill: #bac4ce; stroke: #bac4ce; stroke-width: 0.8"/>
      </g>
     </g>
     <g id="text_23">
      <text style="font-size: 10px; font-family: 'STIXGeneral', serif; text-anchor: end" x="261.68" y="101.338954" transform="rotate(-0 261.68 101.338954)">0.10</text>
     </g>
    </g>
    <g id="ytick_10">
     <g id="line2d_32">
      <path d="M 268.18 64.370431
L 437.497701 64.370431
" clip-path="url(#pce1b5482a9)" style="fill: none; stroke: #dce1e7; stroke-width: 0.6; stroke-linecap: square"/>
     </g>
     <g id="line2d_33">
      <g>
       <use xlink:href="#md120cf5899" x="268.18" y="64.370431" style="fill: #bac4ce; stroke: #bac4ce; stroke-width: 0.8"/>
      </g>
     </g>
     <g id="text_24">
      <text style="font-size: 10px; font-family: 'STIXGeneral', serif; text-anchor: end" x="261.68" y="68.120431" transform="rotate(-0 261.68 68.120431)">0.15</text>
     </g>
    </g>
    <g id="ytick_11">
     <g id="line2d_34">
      <path d="M 268.18 31.151907
L 437.497701 31.151907
" clip-path="url(#pce1b5482a9)" style="fill: none; stroke: #dce1e7; stroke-width: 0.6; stroke-linecap: square"/>
     </g>
     <g id="line2d_35">
      <g>
       <use xlink:href="#md120cf5899" x="268.18" y="31.151907" style="fill: #bac4ce; stroke: #bac4ce; stroke-width: 0.8"/>
      </g>
     </g>
     <g id="text_25">
      <text style="font-size: 10px; font-family: 'STIXGeneral', serif; text-anchor: end" x="261.68" y="34.901907" transform="rotate(-0 261.68 34.901907)">0.20</text>
     </g>
    </g>
    <g id="text_26">
     <text style="font-size: 10px; font-family: 'STIXGeneral', serif; text-anchor: middle" x="237.68" y="88.098112" transform="rotate(-90 237.68 88.098112)">Arm-command RMSE</text>
    </g>
   </g>
   <g id="line2d_36">
    <path d="M 282.830314 31.183585
L 290.565637 37.210931
L 298.300959 28.440486
L 306.036282 41.527802
L 313.771604 38.446111
L 321.506927 37.615034
L 329.242249 43.129935
L 336.977571 39.498001
L 344.712894 49.246639
L 352.448216 51.959397
L 360.183539 58.555932
L 367.918861 56.192616
L 375.654184 56.274139
L 383.389506 58.585212
L 391.124829 61.394141
L 398.860151 61.250624
L 406.595474 63.114556
L 414.330796 63.412118
L 422.066119 65.907781
L 429.801441 65.143617
" clip-path="url(#pce1b5482a9)" style="fill: none; stroke: #bd5e3b; stroke-width: 1.5; stroke-linecap: square"/>
    <defs>
     <path id="mf57f30130b" d="M 0 2.25
C 0.596707 2.25 1.169055 2.012926 1.59099 1.59099
C 2.012926 1.169055 2.25 0.596707 2.25 0
C 2.25 -0.596707 2.012926 -1.169055 1.59099 -1.59099
C 1.169055 -2.012926 0.596707 -2.25 0 -2.25
C -0.596707 -2.25 -1.169055 -2.012926 -1.59099 -1.59099
C -2.012926 -1.169055 -2.25 -0.596707 -2.25 0
C -2.25 0.596707 -2.012926 1.169055 -1.59099 1.59099
C -1.169055 2.012926 -0.596707 2.25 0 2.25
z
" style="stroke: #bd5e3b"/>
    </defs>
    <g clip-path="url(#pce1b5482a9)">
     <use xlink:href="#mf57f30130b" x="282.830314" y="31.183585" style="fill: #bd5e3b; stroke: #bd5e3b"/>
     <use xlink:href="#mf57f30130b" x="290.565637" y="37.210931" style="fill: #bd5e3b; stroke: #bd5e3b"/>
     <use xlink:href="#mf57f30130b" x="298.300959" y="28.440486" style="fill: #bd5e3b; stroke: #bd5e3b"/>
     <use xlink:href="#mf57f30130b" x="306.036282" y="41.527802" style="fill: #bd5e3b; stroke: #bd5e3b"/>
     <use xlink:href="#mf57f30130b" x="313.771604" y="38.446111" style="fill: #bd5e3b; stroke: #bd5e3b"/>
     <use xlink:href="#mf57f30130b" x="321.506927" y="37.615034" style="fill: #bd5e3b; stroke: #bd5e3b"/>
     <use xlink:href="#mf57f30130b" x="329.242249" y="43.129935" style="fill: #bd5e3b; stroke: #bd5e3b"/>
     <use xlink:href="#mf57f30130b" x="336.977571" y="39.498001" style="fill: #bd5e3b; stroke: #bd5e3b"/>
     <use xlink:href="#mf57f30130b" x="344.712894" y="49.246639" style="fill: #bd5e3b; stroke: #bd5e3b"/>
     <use xlink:href="#mf57f30130b" x="352.448216" y="51.959397" style="fill: #bd5e3b; stroke: #bd5e3b"/>
     <use xlink:href="#mf57f30130b" x="360.183539" y="58.555932" style="fill: #bd5e3b; stroke: #bd5e3b"/>
     <use xlink:href="#mf57f30130b" x="367.918861" y="56.192616" style="fill: #bd5e3b; stroke: #bd5e3b"/>
     <use xlink:href="#mf57f30130b" x="375.654184" y="56.274139" style="fill: #bd5e3b; stroke: #bd5e3b"/>
     <use xlink:href="#mf57f30130b" x="383.389506" y="58.585212" style="fill: #bd5e3b; stroke: #bd5e3b"/>
     <use xlink:href="#mf57f30130b" x="391.124829" y="61.394141" style="fill: #bd5e3b; stroke: #bd5e3b"/>
     <use xlink:href="#mf57f30130b" x="398.860151" y="61.250624" style="fill: #bd5e3b; stroke: #bd5e3b"/>
     <use xlink:href="#mf57f30130b" x="406.595474" y="63.114556" style="fill: #bd5e3b; stroke: #bd5e3b"/>
     <use xlink:href="#mf57f30130b" x="414.330796" y="63.412118" style="fill: #bd5e3b; stroke: #bd5e3b"/>
     <use xlink:href="#mf57f30130b" x="422.066119" y="65.907781" style="fill: #bd5e3b; stroke: #bd5e3b"/>
     <use xlink:href="#mf57f30130b" x="429.801441" y="65.143617" style="fill: #bd5e3b; stroke: #bd5e3b"/>
    </g>
   </g>
   <g id="patch_6">
    <path d="M 268.18 164.026
L 268.18 12.170225
" style="fill: none; stroke: #bac4ce; stroke-width: 0.8; stroke-linejoin: miter; stroke-linecap: square"/>
   </g>
   <g id="patch_7">
    <path d="M 268.18 164.026
L 437.497701 164.026
" style="fill: none; stroke: #bac4ce; stroke-width: 0.8; stroke-linejoin: miter; stroke-linecap: square"/>
   </g>
  </g>
  <g id="axes_3">
   <g id="patch_8">
    <path d="M 487.78 164.026
L 657.097701 164.026
L 657.097701 12.170225
L 487.78 12.170225
z
" style="fill: #ffffff"/>
   </g>
   <g id="matplotlib.axis_5">
    <g id="xtick_11">
     <g id="line2d_37">
      <g>
       <use xlink:href="#m39f103ebae" x="494.694992" y="164.026" style="fill: #bac4ce; stroke: #bac4ce; stroke-width: 0.8"/>
      </g>
     </g>
     <g id="text_27">
      <text style="font-size: 10px; font-family: 'STIXGeneral', serif; text-anchor: middle" x="494.694992" y="178.026" transform="rotate(-0 494.694992 178.026)">0.0</text>
     </g>
    </g>
    <g id="xtick_12">
     <g id="line2d_38">
      <g>
       <use xlink:href="#m39f103ebae" x="533.371604" y="164.026" style="fill: #bac4ce; stroke: #bac4ce; stroke-width: 0.8"/>
      </g>
     </g>
     <g id="text_28">
      <text style="font-size: 10px; font-family: 'STIXGeneral', serif; text-anchor: middle" x="533.371604" y="178.026" transform="rotate(-0 533.371604 178.026)">2.5</text>
     </g>
    </g>
    <g id="xtick_13">
     <g id="line2d_39">
      <g>
       <use xlink:href="#m39f103ebae" x="572.048216" y="164.026" style="fill: #bac4ce; stroke: #bac4ce; stroke-width: 0.8"/>
      </g>
     </g>
     <g id="text_29">
      <text style="font-size: 10px; font-family: 'STIXGeneral', serif; text-anchor: middle" x="572.048216" y="178.026" transform="rotate(-0 572.048216 178.026)">5.0</text>
     </g>
    </g>
    <g id="xtick_14">
     <g id="line2d_40">
      <g>
       <use xlink:href="#m39f103ebae" x="610.724829" y="164.026" style="fill: #bac4ce; stroke: #bac4ce; stroke-width: 0.8"/>
      </g>
     </g>
     <g id="text_30">
      <text style="font-size: 10px; font-family: 'STIXGeneral', serif; text-anchor: middle" x="610.724829" y="178.026" transform="rotate(-0 610.724829 178.026)">7.5</text>
     </g>
    </g>
    <g id="xtick_15">
     <g id="line2d_41">
      <g>
       <use xlink:href="#m39f103ebae" x="649.401441" y="164.026" style="fill: #bac4ce; stroke: #bac4ce; stroke-width: 0.8"/>
      </g>
     </g>
     <g id="text_31">
      <text style="font-size: 10px; font-family: 'STIXGeneral', serif; text-anchor: middle" x="649.401441" y="178.026" transform="rotate(-0 649.401441 178.026)">10.0</text>
     </g>
    </g>
    <g id="text_32">
     <text style="font-size: 10px; font-family: 'STIXGeneral', serif; text-anchor: middle" x="572.43885" y="192.026" transform="rotate(-0 572.43885 192.026)">Query recovery updates (thousands)</text>
    </g>
   </g>
   <g id="matplotlib.axis_6">
    <g id="ytick_12">
     <g id="line2d_42">
      <path d="M 487.78 164.026
L 657.097701 164.026
" clip-path="url(#p36fefdd623)" style="fill: none; stroke: #dce1e7; stroke-width: 0.6; stroke-linecap: square"/>
     </g>
     <g id="line2d_43">
      <g>
       <use xlink:href="#md120cf5899" x="487.78" y="164.026" style="fill: #bac4ce; stroke: #bac4ce; stroke-width: 0.8"/>
      </g>
     </g>
     <g id="text_33">
      <text style="font-size: 10px; font-family: 'STIXGeneral', serif; text-anchor: end" x="481.28" y="167.776" transform="rotate(-0 481.28 167.776)">0</text>
     </g>
    </g>
    <g id="ytick_13">
     <g id="line2d_44">
      <path d="M 487.78 134.082284
L 657.097701 134.082284
" clip-path="url(#p36fefdd623)" style="fill: none; stroke: #dce1e7; stroke-width: 0.6; stroke-linecap: square"/>
     </g>
     <g id="line2d_45">
      <g>
       <use xlink:href="#md120cf5899" x="487.78" y="134.082284" style="fill: #bac4ce; stroke: #bac4ce; stroke-width: 0.8"/>
      </g>
     </g>
     <g id="text_34">
      <text style="font-size: 10px; font-family: 'STIXGeneral', serif; text-anchor: end" x="481.28" y="137.832284" transform="rotate(-0 481.28 137.832284)">2</text>
     </g>
    </g>
    <g id="ytick_14">
     <g id="line2d_46">
      <path d="M 487.78 104.138568
L 657.097701 104.138568
" clip-path="url(#p36fefdd623)" style="fill: none; stroke: #dce1e7; stroke-width: 0.6; stroke-linecap: square"/>
     </g>
     <g id="line2d_47">
      <g>
       <use xlink:href="#md120cf5899" x="487.78" y="104.138568" style="fill: #bac4ce; stroke: #bac4ce; stroke-width: 0.8"/>
      </g>
     </g>
     <g id="text_35">
      <text style="font-size: 10px; font-family: 'STIXGeneral', serif; text-anchor: end" x="481.28" y="107.888568" transform="rotate(-0 481.28 107.888568)">4</text>
     </g>
    </g>
    <g id="ytick_15">
     <g id="line2d_48">
      <path d="M 487.78 74.194852
L 657.097701 74.194852
" clip-path="url(#p36fefdd623)" style="fill: none; stroke: #dce1e7; stroke-width: 0.6; stroke-linecap: square"/>
     </g>
     <g id="line2d_49">
      <g>
       <use xlink:href="#md120cf5899" x="487.78" y="74.194852" style="fill: #bac4ce; stroke: #bac4ce; stroke-width: 0.8"/>
      </g>
     </g>
     <g id="text_36">
      <text style="font-size: 10px; font-family: 'STIXGeneral', serif; text-anchor: end" x="481.28" y="77.944852" transform="rotate(-0 481.28 77.944852)">6</text>
     </g>
    </g>
    <g id="ytick_16">
     <g id="line2d_50">
      <path d="M 487.78 44.251136
L 657.097701 44.251136
" clip-path="url(#p36fefdd623)" style="fill: none; stroke: #dce1e7; stroke-width: 0.6; stroke-linecap: square"/>
     </g>
     <g id="line2d_51">
      <g>
       <use xlink:href="#md120cf5899" x="487.78" y="44.251136" style="fill: #bac4ce; stroke: #bac4ce; stroke-width: 0.8"/>
      </g>
     </g>
     <g id="text_37">
      <text style="font-size: 10px; font-family: 'STIXGeneral', serif; text-anchor: end" x="481.28" y="48.001136" transform="rotate(-0 481.28 48.001136)">8</text>
     </g>
    </g>
    <g id="ytick_17">
     <g id="line2d_52">
      <path d="M 487.78 14.30742
L 657.097701 14.30742
" clip-path="url(#p36fefdd623)" style="fill: none; stroke: #dce1e7; stroke-width: 0.6; stroke-linecap: square"/>
     </g>
     <g id="line2d_53">
      <g>
       <use xlink:href="#md120cf5899" x="487.78" y="14.30742" style="fill: #bac4ce; stroke: #bac4ce; stroke-width: 0.8"/>
      </g>
     </g>
     <g id="text_38">
      <text style="font-size: 10px; font-family: 'STIXGeneral', serif; text-anchor: end" x="481.28" y="18.05742" transform="rotate(-0 481.28 18.05742)">10</text>
     </g>
    </g>
    <g id="text_39">
     <text style="font-size: 10px; font-family: 'STIXGeneral', serif; text-anchor: middle" x="464.78" y="88.098112" transform="rotate(-90 464.78 88.098112)">Gripper errors (%)</text>
    </g>
   </g>
   <g id="line2d_54">
    <path d="M 502.430314 59.46429
L 510.165637 64.060409
L 517.900959 28.440486
L 525.636282 58.31526
L 533.371604 53.719141
L 541.106927 65.209439
L 548.842249 38.781754
L 556.577571 65.209439
L 564.312894 65.209439
L 572.048216 78.997796
L 579.783539 92.786154
L 587.518861 77.848767
L 595.254184 81.295856
L 602.989506 57.166231
L 610.724829 60.61332
L 618.460151 84.742945
L 626.195474 76.699737
L 633.930796 77.848767
L 641.666119 80.146826
L 649.401441 84.742945
" clip-path="url(#p36fefdd623)" style="fill: none; stroke: #65528c; stroke-width: 1.5; stroke-linecap: square"/>
    <defs>
     <path id="mf26f4b403a" d="M 0 2.25
C 0.596707 2.25 1.169055 2.012926 1.59099 1.59099
C 2.012926 1.169055 2.25 0.596707 2.25 0
C 2.25 -0.596707 2.012926 -1.169055 1.59099 -1.59099
C 1.169055 -2.012926 0.596707 -2.25 0 -2.25
C -0.596707 -2.25 -1.169055 -2.012926 -1.59099 -1.59099
C -2.012926 -1.169055 -2.25 -0.596707 -2.25 0
C -2.25 0.596707 -2.012926 1.169055 -1.59099 1.59099
C -1.169055 2.012926 -0.596707 2.25 0 2.25
z
" style="stroke: #65528c"/>
    </defs>
    <g clip-path="url(#p36fefdd623)">
     <use xlink:href="#mf26f4b403a" x="502.430314" y="59.46429" style="fill: #65528c; stroke: #65528c"/>
     <use xlink:href="#mf26f4b403a" x="510.165637" y="64.060409" style="fill: #65528c; stroke: #65528c"/>
     <use xlink:href="#mf26f4b403a" x="517.900959" y="28.440486" style="fill: #65528c; stroke: #65528c"/>
     <use xlink:href="#mf26f4b403a" x="525.636282" y="58.31526" style="fill: #65528c; stroke: #65528c"/>
     <use xlink:href="#mf26f4b403a" x="533.371604" y="53.719141" style="fill: #65528c; stroke: #65528c"/>
     <use xlink:href="#mf26f4b403a" x="541.106927" y="65.209439" style="fill: #65528c; stroke: #65528c"/>
     <use xlink:href="#mf26f4b403a" x="548.842249" y="38.781754" style="fill: #65528c; stroke: #65528c"/>
     <use xlink:href="#mf26f4b403a" x="556.577571" y="65.209439" style="fill: #65528c; stroke: #65528c"/>
     <use xlink:href="#mf26f4b403a" x="564.312894" y="65.209439" style="fill: #65528c; stroke: #65528c"/>
     <use xlink:href="#mf26f4b403a" x="572.048216" y="78.997796" style="fill: #65528c; stroke: #65528c"/>
     <use xlink:href="#mf26f4b403a" x="579.783539" y="92.786154" style="fill: #65528c; stroke: #65528c"/>
     <use xlink:href="#mf26f4b403a" x="587.518861" y="77.848767" style="fill: #65528c; stroke: #65528c"/>
     <use xlink:href="#mf26f4b403a" x="595.254184" y="81.295856" style="fill: #65528c; stroke: #65528c"/>
     <use xlink:href="#mf26f4b403a" x="602.989506" y="57.166231" style="fill: #65528c; stroke: #65528c"/>
     <use xlink:href="#mf26f4b403a" x="610.724829" y="60.61332" style="fill: #65528c; stroke: #65528c"/>
     <use xlink:href="#mf26f4b403a" x="618.460151" y="84.742945" style="fill: #65528c; stroke: #65528c"/>
     <use xlink:href="#mf26f4b403a" x="626.195474" y="76.699737" style="fill: #65528c; stroke: #65528c"/>
     <use xlink:href="#mf26f4b403a" x="633.930796" y="77.848767" style="fill: #65528c; stroke: #65528c"/>
     <use xlink:href="#mf26f4b403a" x="641.666119" y="80.146826" style="fill: #65528c; stroke: #65528c"/>
     <use xlink:href="#mf26f4b403a" x="649.401441" y="84.742945" style="fill: #65528c; stroke: #65528c"/>
    </g>
   </g>
   <g id="patch_9">
    <path d="M 487.78 164.026
L 487.78 12.170225
" style="fill: none; stroke: #bac4ce; stroke-width: 0.8; stroke-linejoin: miter; stroke-linecap: square"/>
   </g>
   <g id="patch_10">
    <path d="M 487.78 164.026
L 657.097701 164.026
" style="fill: none; stroke: #bac4ce; stroke-width: 0.8; stroke-linejoin: miter; stroke-linecap: square"/>
   </g>
  </g>
  <g id="text_40">
   <text style="font-size: 8px; font-family: 'STIXGeneral', serif; text-anchor: start; fill: #596776" x="60.264" y="215.6472" transform="rotate(-0 60.264 215.6472)">Full decoder + input queries · native rotary buffers · 200 fixed held-out frames · offline errors, not task success</text>
  </g>
 </g>
 <defs>
  <clipPath id="pacb2636613">
   <rect x="48.58" y="12.170225" width="169.317701" height="151.855775"/>
  </clipPath>
  <clipPath id="pce1b5482a9">
   <rect x="268.18" y="12.170225" width="169.317701" height="151.855775"/>
  </clipPath>
  <clipPath id="p36fefdd623">
   <rect x="487.78" y="12.170225" width="169.317701" height="151.855775"/>
  </clipPath>
 </defs>
</svg>
