<?xml version="1.0" encoding="utf-8" standalone="no"?>
<!DOCTYPE svg PUBLIC "-//W3C//DTD SVG 1.1//EN"
  "http://www.w3.org/Graphics/SVG/1.1/DTD/svg11.dtd">
<svg xmlns:xlink="http://www.w3.org/1999/xlink" width="669.6pt" height="219.6pt" viewBox="0 0 669.6 219.6" xmlns="http://www.w3.org/2000/svg" version="1.1">
 <metadata>
  <rdf:RDF xmlns:dc="http://purl.org/dc/elements/1.1/" xmlns:cc="http://creativecommons.org/ns#" xmlns:rdf="http://www.w3.org/1999/02/22-rdf-syntax-ns#">
   <cc:Work>
    <dc:type rdf:resource="http://purl.org/dc/dcmitype/StillImage"/>
    <dc:date>2026-10-02T11:01:57.630514</dc:date>
    <dc:format>image/svg+xml</dc:format>
    <dc:creator>
     <cc:Agent>
      <dc:title>Matplotlib v3.11.2, https://matplotlib.org/</dc:title>
     </cc:Agent>
    </dc:creator>
   </cc:Work>
  </rdf:RDF>
 </metadata>
 <defs>
  <style type="text/css">*{stroke-linejoin: round; stroke-linecap: butt}</style>
 </defs>
 <g id="figure_1">
  <g id="patch_1">
   <path d="M 0 219.6
L 669.6 219.6
L 669.6 0
L 0 0
z
" style="fill: #ffffff"/>
  </g>
  <g id="axes_1">
   <g id="patch_2">
    <path d="M 48.58 163.68475
L 219.6 163.68475
L 219.6 12.170225
L 48.58 12.170225
z
" style="fill: #ffffff"/>
   </g>
   <g id="matplotlib.axis_1">
    <g id="xtick_1">
     <g id="line2d_1">
      <defs>
       <path id="mec8f689105" d="M 0 0
L 0 3
" style="stroke: #bac4ce; stroke-width: 0.8"/>
      </defs>
      <g>
       <use xlink:href="#mec8f689105" x="55.306787" y="163.68475" style="fill: #bac4ce; stroke: #bac4ce; stroke-width: 0.8"/>
      </g>
     </g>
     <g id="text_1">
      <text style="font-size: 10px; font-family: 'STIXGeneral', serif; text-anchor: middle" x="55.306787" y="177.68475" transform="rotate(-0 55.306787 177.68475)">0</text>
     </g>
    </g>
    <g id="xtick_2">
     <g id="line2d_2">
      <g>
       <use xlink:href="#mec8f689105" x="96.766181" y="163.68475" style="fill: #bac4ce; stroke: #bac4ce; stroke-width: 0.8"/>
      </g>
     </g>
     <g id="text_2">
      <text style="font-size: 10px; font-family: 'STIXGeneral', serif; text-anchor: middle" x="96.766181" y="177.68475" transform="rotate(-0 96.766181 177.68475)">2</text>
     </g>
    </g>
    <g id="xtick_3">
     <g id="line2d_3">
      <g>
       <use xlink:href="#mec8f689105" x="138.225575" y="163.68475" style="fill: #bac4ce; stroke: #bac4ce; stroke-width: 0.8"/>
      </g>
     </g>
     <g id="text_3">
      <text style="font-size: 10px; font-family: 'STIXGeneral', serif; text-anchor: middle" x="138.225575" y="177.68475" transform="rotate(-0 138.225575 177.68475)">4</text>
     </g>
    </g>
    <g id="xtick_4">
     <g id="line2d_4">
      <g>
       <use xlink:href="#mec8f689105" x="179.684968" y="163.68475" style="fill: #bac4ce; stroke: #bac4ce; stroke-width: 0.8"/>
      </g>
     </g>
     <g id="text_4">
      <text style="font-size: 10px; font-family: 'STIXGeneral', serif; text-anchor: middle" x="179.684968" y="177.68475" transform="rotate(-0 179.684968 177.68475)">6</text>
     </g>
    </g>
    <g id="text_5">
     <text style="font-size: 10px; font-family: 'STIXGeneral', serif; text-anchor: middle" x="134.09" y="191.68475" transform="rotate(-0 134.09 191.68475)">Query recovery updates (thousands)</text>
    </g>
   </g>
   <g id="matplotlib.axis_2">
    <g id="ytick_1">
     <g id="line2d_5">
      <path d="M 48.58 163.68475
L 219.6 163.68475
" clip-path="url(#pe075ad4895)" style="fill: none; stroke: #dce1e7; stroke-width: 0.6; stroke-linecap: square"/>
     </g>
     <g id="line2d_6">
      <defs>
       <path id="me7e6917ee4" d="M 0 0
L -3 0
" style="stroke: #bac4ce; stroke-width: 0.8"/>
      </defs>
      <g>
       <use xlink:href="#me7e6917ee4" x="48.58" y="163.68475" style="fill: #bac4ce; stroke: #bac4ce; stroke-width: 0.8"/>
      </g>
     </g>
     <g id="text_6">
      <text style="font-size: 10px; font-family: 'STIXGeneral', serif; text-anchor: end" x="42.08" y="167.43475" transform="rotate(-0 42.08 167.43475)">0.00</text>
     </g>
    </g>
    <g id="ytick_2">
     <g id="line2d_7">
      <path d="M 48.58 136.015658
L 219.6 136.015658
" clip-path="url(#pe075ad4895)" style="fill: none; stroke: #dce1e7; stroke-width: 0.6; stroke-linecap: square"/>
     </g>
     <g id="line2d_8">
      <g>
       <use xlink:href="#me7e6917ee4" x="48.58" y="136.015658" style="fill: #bac4ce; stroke: #bac4ce; stroke-width: 0.8"/>
      </g>
     </g>
     <g id="text_7">
      <text style="font-size: 10px; font-family: 'STIXGeneral', serif; text-anchor: end" x="42.08" y="139.765658" transform="rotate(-0 42.08 139.765658)">0.05</text>
     </g>
    </g>
    <g id="ytick_3">
     <g id="line2d_9">
      <path d="M 48.58 108.346566
L 219.6 108.346566
" clip-path="url(#pe075ad4895)" style="fill: none; stroke: #dce1e7; stroke-width: 0.6; stroke-linecap: square"/>
     </g>
     <g id="line2d_10">
      <g>
       <use xlink:href="#me7e6917ee4" x="48.58" y="108.346566" style="fill: #bac4ce; stroke: #bac4ce; stroke-width: 0.8"/>
      </g>
     </g>
     <g id="text_8">
      <text style="font-size: 10px; font-family: 'STIXGeneral', serif; text-anchor: end" x="42.08" y="112.096566" transform="rotate(-0 42.08 112.096566)">0.10</text>
     </g>
    </g>
    <g id="ytick_4">
     <g id="line2d_11">
      <path d="M 48.58 80.677474
L 219.6 80.677474
" clip-path="url(#pe075ad4895)" style="fill: none; stroke: #dce1e7; stroke-width: 0.6; stroke-linecap: square"/>
     </g>
     <g id="line2d_12">
      <g>
       <use xlink:href="#me7e6917ee4" x="48.58" y="80.677474" style="fill: #bac4ce; stroke: #bac4ce; stroke-width: 0.8"/>
      </g>
     </g>
     <g id="text_9">
      <text style="font-size: 10px; font-family: 'STIXGeneral', serif; text-anchor: end" x="42.08" y="84.427474" transform="rotate(-0 42.08 84.427474)">0.15</text>
     </g>
    </g>
    <g id="ytick_5">
     <g id="line2d_13">
      <path d="M 48.58 53.008382
L 219.6 53.008382
" clip-path="url(#pe075ad4895)" style="fill: none; stroke: #dce1e7; stroke-width: 0.6; stroke-linecap: square"/>
     </g>
     <g id="line2d_14">
      <g>
       <use xlink:href="#me7e6917ee4" x="48.58" y="53.008382" style="fill: #bac4ce; stroke: #bac4ce; stroke-width: 0.8"/>
      </g>
     </g>
     <g id="text_10">
      <text style="font-size: 10px; font-family: 'STIXGeneral', serif; text-anchor: end" x="42.08" y="56.758382" transform="rotate(-0 42.08 56.758382)">0.20</text>
     </g>
    </g>
    <g id="ytick_6">
     <g id="line2d_15">
      <path d="M 48.58 25.33929
L 219.6 25.33929
" clip-path="url(#pe075ad4895)" style="fill: none; stroke: #dce1e7; stroke-width: 0.6; stroke-linecap: square"/>
     </g>
     <g id="line2d_16">
      <g>
       <use xlink:href="#me7e6917ee4" x="48.58" y="25.33929" style="fill: #bac4ce; stroke: #bac4ce; stroke-width: 0.8"/>
      </g>
     </g>
     <g id="text_11">
      <text style="font-size: 10px; font-family: 'STIXGeneral', serif; text-anchor: end" x="42.08" y="29.08929" transform="rotate(-0 42.08 29.08929)">0.25</text>
     </g>
    </g>
    <g id="text_12">
     <text style="font-size: 10px; font-family: 'STIXGeneral', serif; text-anchor: middle" x="18.08" y="87.927487" transform="rotate(-90 18.08 87.927487)">Native validation loss</text>
    </g>
   </g>
   <g id="line2d_17">
    <path d="M 65.671635 29.202009
L 76.036484 35.560792
L 86.401332 30.566245
L 96.766181 34.18295
L 107.131029 35.669961
L 117.495878 38.073209
L 127.860726 36.179845
L 138.225575 39.51997
L 148.590423 43.935366
L 158.955272 43.578669
L 169.32012 46.325089
L 179.684968 46.396067
L 190.049817 45.142133
L 200.414665 46.611616
L 210.779514 48.359427
" clip-path="url(#pe075ad4895)" style="fill: none; stroke: #1f5f94; stroke-width: 1.5; stroke-linecap: square"/>
    <defs>
     <path id="m3abb226616" d="M 0 2.25
C 0.596707 2.25 1.169055 2.012926 1.59099 1.59099
C 2.012926 1.169055 2.25 0.596707 2.25 0
C 2.25 -0.596707 2.012926 -1.169055 1.59099 -1.59099
C 1.169055 -2.012926 0.596707 -2.25 0 -2.25
C -0.596707 -2.25 -1.169055 -2.012926 -1.59099 -1.59099
C -2.012926 -1.169055 -2.25 -0.596707 -2.25 0
C -2.25 0.596707 -2.012926 1.169055 -1.59099 1.59099
C -1.169055 2.012926 -0.596707 2.25 0 2.25
z
" style="stroke: #1f5f94"/>
    </defs>
    <g clip-path="url(#pe075ad4895)">
     <use xlink:href="#m3abb226616" x="65.671635" y="29.202009" style="fill: #1f5f94; stroke: #1f5f94"/>
     <use xlink:href="#m3abb226616" x="76.036484" y="35.560792" style="fill: #1f5f94; stroke: #1f5f94"/>
     <use xlink:href="#m3abb226616" x="86.401332" y="30.566245" style="fill: #1f5f94; stroke: #1f5f94"/>
     <use xlink:href="#m3abb226616" x="96.766181" y="34.18295" style="fill: #1f5f94; stroke: #1f5f94"/>
     <use xlink:href="#m3abb226616" x="107.131029" y="35.669961" style="fill: #1f5f94; stroke: #1f5f94"/>
     <use xlink:href="#m3abb226616" x="117.495878" y="38.073209" style="fill: #1f5f94; stroke: #1f5f94"/>
     <use xlink:href="#m3abb226616" x="127.860726" y="36.179845" style="fill: #1f5f94; stroke: #1f5f94"/>
     <use xlink:href="#m3abb226616" x="138.225575" y="39.51997" style="fill: #1f5f94; stroke: #1f5f94"/>
     <use xlink:href="#m3abb226616" x="148.590423" y="43.935366" style="fill: #1f5f94; stroke: #1f5f94"/>
     <use xlink:href="#m3abb226616" x="158.955272" y="43.578669" style="fill: #1f5f94; stroke: #1f5f94"/>
     <use xlink:href="#m3abb226616" x="169.32012" y="46.325089" style="fill: #1f5f94; stroke: #1f5f94"/>
     <use xlink:href="#m3abb226616" x="179.684968" y="46.396067" style="fill: #1f5f94; stroke: #1f5f94"/>
     <use xlink:href="#m3abb226616" x="190.049817" y="45.142133" style="fill: #1f5f94; stroke: #1f5f94"/>
     <use xlink:href="#m3abb226616" x="200.414665" y="46.611616" style="fill: #1f5f94; stroke: #1f5f94"/>
     <use xlink:href="#m3abb226616" x="210.779514" y="48.359427" style="fill: #1f5f94; stroke: #1f5f94"/>
    </g>
   </g>
   <g id="line2d_18">
    <path d="M 56.353636 54.733178
L 58.426606 40.587457
L 60.499576 31.499678
L 62.572545 28.403924
L 64.645515 31.242051
L 66.718485 35.028151
L 68.791455 33.357847
L 70.864424 33.729743
L 72.937394 31.949685
L 75.010364 29.519476
L 77.083333 31.701904
L 79.156303 30.212291
L 81.229273 32.676931
L 83.302242 34.690612
L 85.375212 34.104628
L 87.448182 41.992482
L 89.521152 39.592841
L 91.594121 37.395442
L 93.667091 37.792695
L 95.740061 38.611798
L 97.81303 38.877584
L 99.886 39.577763
L 101.95897 40.429685
L 104.031939 36.288338
L 106.104909 39.042332
L 108.177879 41.804901
L 110.250848 42.735861
L 112.323818 43.696586
L 114.396788 37.95905
L 116.469758 40.310876
L 118.542727 40.110993
L 120.615697 41.759432
L 122.688667 41.603079
L 124.761636 44.052031
L 126.834606 44.167451
L 128.907576 40.868634
L 130.980545 44.82219
L 133.053515 45.038541
L 135.126485 50.390686
L 137.199455 45.268106
L 139.272424 46.831117
L 141.345394 48.784412
L 143.418364 44.996202
L 145.491333 46.432524
L 147.564303 50.880607
L 149.637273 48.236542
L 151.710242 47.460112
L 153.783212 45.142202
L 155.856182 47.563509
L 157.929152 48.017853
L 160.002121 50.58514
L 162.075091 48.525664
L 164.148061 46.299664
L 166.22103 46.527065
L 168.294 50.376919
L 170.36697 51.245032
L 172.439939 50.535358
L 174.512909 49.249777
L 176.585879 51.146859
L 178.658848 53.727657
L 180.731818 56.924454
L 182.804788 55.549754
L 184.877758 53.20062
L 186.950727 54.335456
L 189.023697 53.499873
L 191.096667 56.156563
L 193.169636 51.467556
L 195.242606 56.594905
L 197.315576 55.234137
L 199.388545 56.464305
L 201.461515 58.362925
L 203.534485 57.31699
L 205.607455 55.452677
L 207.680424 57.154774
L 209.753394 55.940389
L 211.826364 54.816438
" clip-path="url(#pe075ad4895)" style="fill: none; stroke: #94a1ad; stroke-opacity: 0.7; stroke-linecap: square"/>
   </g>
   <g id="patch_3">
    <path d="M 48.58 163.68475
L 48.58 12.170225
" style="fill: none; stroke: #bac4ce; stroke-width: 0.8; stroke-linejoin: miter; stroke-linecap: square"/>
   </g>
   <g id="patch_4">
    <path d="M 48.58 163.68475
L 219.6 163.68475
" style="fill: none; stroke: #bac4ce; stroke-width: 0.8; stroke-linejoin: miter; stroke-linecap: square"/>
   </g>
   <g id="legend_1">
    <g id="line2d_19">
     <path d="M 54.88 153.18475
L 61.88 153.18475
L 68.88 153.18475
" style="fill: none; stroke: #94a1ad; stroke-opacity: 0.7; stroke-linecap: square"/>
    </g>
    <g id="text_13">
     <text style="font-size: 7px; font-family: 'STIXGeneral', serif; text-anchor: start" x="74.48" y="155.63475" transform="rotate(-0 74.48 155.63475)">Train: median / 100 updates</text>
    </g>
   </g>
  </g>
  <g id="axes_2">
   <g id="patch_5">
    <path d="M 268.18 163.68475
L 439.2 163.68475
L 439.2 12.170225
L 268.18 12.170225
z
" style="fill: #ffffff"/>
   </g>
   <g id="matplotlib.axis_3">
    <g id="xtick_5">
     <g id="line2d_20">
      <g>
       <use xlink:href="#mec8f689105" x="274.906787" y="163.68475" style="fill: #bac4ce; stroke: #bac4ce; stroke-width: 0.8"/>
      </g>
     </g>
     <g id="text_14">
      <text style="font-size: 10px; font-family: 'STIXGeneral', serif; text-anchor: middle" x="274.906787" y="177.68475" transform="rotate(-0 274.906787 177.68475)">0</text>
     </g>
    </g>
    <g id="xtick_6">
     <g id="line2d_21">
      <g>
       <use xlink:href="#mec8f689105" x="316.366181" y="163.68475" style="fill: #bac4ce; stroke: #bac4ce; stroke-width: 0.8"/>
      </g>
     </g>
     <g id="text_15">
      <text style="font-size: 10px; font-family: 'STIXGeneral', serif; text-anchor: middle" x="316.366181" y="177.68475" transform="rotate(-0 316.366181 177.68475)">2</text>
     </g>
    </g>
    <g id="xtick_7">
     <g id="line2d_22">
      <g>
       <use xlink:href="#mec8f689105" x="357.825575" y="163.68475" style="fill: #bac4ce; stroke: #bac4ce; stroke-width: 0.8"/>
      </g>
     </g>
     <g id="text_16">
      <text style="font-size: 10px; font-family: 'STIXGeneral', serif; text-anchor: middle" x="357.825575" y="177.68475" transform="rotate(-0 357.825575 177.68475)">4</text>
     </g>
    </g>
    <g id="xtick_8">
     <g id="line2d_23">
      <g>
       <use xlink:href="#mec8f689105" x="399.284968" y="163.68475" style="fill: #bac4ce; stroke: #bac4ce; stroke-width: 0.8"/>
      </g>
     </g>
     <g id="text_17">
      <text style="font-size: 10px; font-family: 'STIXGeneral', serif; text-anchor: middle" x="399.284968" y="177.68475" transform="rotate(-0 399.284968 177.68475)">6</text>
     </g>
    </g>
    <g id="text_18">
     <text style="font-size: 10px; font-family: 'STIXGeneral', serif; text-anchor: middle" x="353.69" y="191.68475" transform="rotate(-0 353.69 191.68475)">Query recovery updates (thousands)</text>
    </g>
   </g>
   <g id="matplotlib.axis_4">
    <g id="ytick_7">
     <g id="line2d_24">
      <path d="M 268.18 163.68475
L 439.2 163.68475
" clip-path="url(#p27766b24c3)" style="fill: none; stroke: #dce1e7; stroke-width: 0.6; stroke-linecap: square"/>
     </g>
     <g id="line2d_25">
      <g>
       <use xlink:href="#me7e6917ee4" x="268.18" y="163.68475" style="fill: #bac4ce; stroke: #bac4ce; stroke-width: 0.8"/>
      </g>
     </g>
     <g id="text_19">
      <text style="font-size: 10px; font-family: 'STIXGeneral', serif; text-anchor: end" x="261.68" y="167.43475" transform="rotate(-0 261.68 167.43475)">0.00</text>
     </g>
    </g>
    <g id="ytick_8">
     <g id="line2d_26">
      <path d="M 268.18 130.540875
L 439.2 130.540875
" clip-path="url(#p27766b24c3)" style="fill: none; stroke: #dce1e7; stroke-width: 0.6; stroke-linecap: square"/>
     </g>
     <g id="line2d_27">
      <g>
       <use xlink:href="#me7e6917ee4" x="268.18" y="130.540875" style="fill: #bac4ce; stroke: #bac4ce; stroke-width: 0.8"/>
      </g>
     </g>
     <g id="text_20">
      <text style="font-size: 10px; font-family: 'STIXGeneral', serif; text-anchor: end" x="261.68" y="134.290875" transform="rotate(-0 261.68 134.290875)">0.05</text>
     </g>
    </g>
    <g id="ytick_9">
     <g id="line2d_28">
      <path d="M 268.18 97.397001
L 439.2 97.397001
" clip-path="url(#p27766b24c3)" style="fill: none; stroke: #dce1e7; stroke-width: 0.6; stroke-linecap: square"/>
     </g>
     <g id="line2d_29">
      <g>
       <use xlink:href="#me7e6917ee4" x="268.18" y="97.397001" style="fill: #bac4ce; stroke: #bac4ce; stroke-width: 0.8"/>
      </g>
     </g>
     <g id="text_21">
      <text style="font-size: 10px; font-family: 'STIXGeneral', serif; text-anchor: end" x="261.68" y="101.147001" transform="rotate(-0 261.68 101.147001)">0.10</text>
     </g>
    </g>
    <g id="ytick_10">
     <g id="line2d_30">
      <path d="M 268.18 64.253126
L 439.2 64.253126
" clip-path="url(#p27766b24c3)" style="fill: none; stroke: #dce1e7; stroke-width: 0.6; stroke-linecap: square"/>
     </g>
     <g id="line2d_31">
      <g>
       <use xlink:href="#me7e6917ee4" x="268.18" y="64.253126" style="fill: #bac4ce; stroke: #bac4ce; stroke-width: 0.8"/>
      </g>
     </g>
     <g id="text_22">
      <text style="font-size: 10px; font-family: 'STIXGeneral', serif; text-anchor: end" x="261.68" y="68.003126" transform="rotate(-0 261.68 68.003126)">0.15</text>
     </g>
    </g>
    <g id="ytick_11">
     <g id="line2d_32">
      <path d="M 268.18 31.109252
L 439.2 31.109252
" clip-path="url(#p27766b24c3)" style="fill: none; stroke: #dce1e7; stroke-width: 0.6; stroke-linecap: square"/>
     </g>
     <g id="line2d_33">
      <g>
       <use xlink:href="#me7e6917ee4" x="268.18" y="31.109252" style="fill: #bac4ce; stroke: #bac4ce; stroke-width: 0.8"/>
      </g>
     </g>
     <g id="text_23">
      <text style="font-size: 10px; font-family: 'STIXGeneral', serif; text-anchor: end" x="261.68" y="34.859252" transform="rotate(-0 261.68 34.859252)">0.20</text>
     </g>
    </g>
    <g id="text_24">
     <text style="font-size: 10px; font-family: 'STIXGeneral', serif; text-anchor: middle" x="237.68" y="87.927487" transform="rotate(-90 237.68 87.927487)">Arm-command RMSE</text>
    </g>
   </g>
   <g id="line2d_34">
    <path d="M 285.271635 31.140858
L 295.636484 37.154659
L 306.001332 28.403924
L 316.366181 41.461829
L 326.731029 38.387063
L 337.095878 37.557854
L 347.460726 43.060363
L 357.825575 39.436591
L 368.190423 49.163321
L 378.555272 51.869983
L 388.92012 58.451694
L 399.284968 56.093689
L 409.649817 56.175029
L 420.014665 58.480909
L 430.379514 61.283525
" clip-path="url(#p27766b24c3)" style="fill: none; stroke: #bd5e3b; stroke-width: 1.5; stroke-linecap: square"/>
    <defs>
     <path id="m80455c005a" d="M 0 2.25
C 0.596707 2.25 1.169055 2.012926 1.59099 1.59099
C 2.012926 1.169055 2.25 0.596707 2.25 0
C 2.25 -0.596707 2.012926 -1.169055 1.59099 -1.59099
C 1.169055 -2.012926 0.596707 -2.25 0 -2.25
C -0.596707 -2.25 -1.169055 -2.012926 -1.59099 -1.59099
C -2.012926 -1.169055 -2.25 -0.596707 -2.25 0
C -2.25 0.596707 -2.012926 1.169055 -1.59099 1.59099
C -1.169055 2.012926 -0.596707 2.25 0 2.25
z
" style="stroke: #bd5e3b"/>
    </defs>
    <g clip-path="url(#p27766b24c3)">
     <use xlink:href="#m80455c005a" x="285.271635" y="31.140858" style="fill: #bd5e3b; stroke: #bd5e3b"/>
     <use xlink:href="#m80455c005a" x="295.636484" y="37.154659" style="fill: #bd5e3b; stroke: #bd5e3b"/>
     <use xlink:href="#m80455c005a" x="306.001332" y="28.403924" style="fill: #bd5e3b; stroke: #bd5e3b"/>
     <use xlink:href="#m80455c005a" x="316.366181" y="41.461829" style="fill: #bd5e3b; stroke: #bd5e3b"/>
     <use xlink:href="#m80455c005a" x="326.731029" y="38.387063" style="fill: #bd5e3b; stroke: #bd5e3b"/>
     <use xlink:href="#m80455c005a" x="337.095878" y="37.557854" style="fill: #bd5e3b; stroke: #bd5e3b"/>
     <use xlink:href="#m80455c005a" x="347.460726" y="43.060363" style="fill: #bd5e3b; stroke: #bd5e3b"/>
     <use xlink:href="#m80455c005a" x="357.825575" y="39.436591" style="fill: #bd5e3b; stroke: #bd5e3b"/>
     <use xlink:href="#m80455c005a" x="368.190423" y="49.163321" style="fill: #bd5e3b; stroke: #bd5e3b"/>
     <use xlink:href="#m80455c005a" x="378.555272" y="51.869983" style="fill: #bd5e3b; stroke: #bd5e3b"/>
     <use xlink:href="#m80455c005a" x="388.92012" y="58.451694" style="fill: #bd5e3b; stroke: #bd5e3b"/>
     <use xlink:href="#m80455c005a" x="399.284968" y="56.093689" style="fill: #bd5e3b; stroke: #bd5e3b"/>
     <use xlink:href="#m80455c005a" x="409.649817" y="56.175029" style="fill: #bd5e3b; stroke: #bd5e3b"/>
     <use xlink:href="#m80455c005a" x="420.014665" y="58.480909" style="fill: #bd5e3b; stroke: #bd5e3b"/>
     <use xlink:href="#m80455c005a" x="430.379514" y="61.283525" style="fill: #bd5e3b; stroke: #bd5e3b"/>
    </g>
   </g>
   <g id="patch_6">
    <path d="M 268.18 163.68475
L 268.18 12.170225
" style="fill: none; stroke: #bac4ce; stroke-width: 0.8; stroke-linejoin: miter; stroke-linecap: square"/>
   </g>
   <g id="patch_7">
    <path d="M 268.18 163.68475
L 439.2 163.68475
" style="fill: none; stroke: #bac4ce; stroke-width: 0.8; stroke-linejoin: miter; stroke-linecap: square"/>
   </g>
  </g>
  <g id="axes_3">
   <g id="patch_8">
    <path d="M 487.78 163.68475
L 658.8 163.68475
L 658.8 12.170225
L 487.78 12.170225
z
" style="fill: #ffffff"/>
   </g>
   <g id="matplotlib.axis_5">
    <g id="xtick_9">
     <g id="line2d_35">
      <g>
       <use xlink:href="#mec8f689105" x="494.506787" y="163.68475" style="fill: #bac4ce; stroke: #bac4ce; stroke-width: 0.8"/>
      </g>
     </g>
     <g id="text_25">
      <text style="font-size: 10px; font-family: 'STIXGeneral', serif; text-anchor: middle" x="494.506787" y="177.68475" transform="rotate(-0 494.506787 177.68475)">0</text>
     </g>
    </g>
    <g id="xtick_10">
     <g id="line2d_36">
      <g>
       <use xlink:href="#mec8f689105" x="535.966181" y="163.68475" style="fill: #bac4ce; stroke: #bac4ce; stroke-width: 0.8"/>
      </g>
     </g>
     <g id="text_26">
      <text style="font-size: 10px; font-family: 'STIXGeneral', serif; text-anchor: middle" x="535.966181" y="177.68475" transform="rotate(-0 535.966181 177.68475)">2</text>
     </g>
    </g>
    <g id="xtick_11">
     <g id="line2d_37">
      <g>
       <use xlink:href="#mec8f689105" x="577.425575" y="163.68475" style="fill: #bac4ce; stroke: #bac4ce; stroke-width: 0.8"/>
      </g>
     </g>
     <g id="text_27">
      <text style="font-size: 10px; font-family: 'STIXGeneral', serif; text-anchor: middle" x="577.425575" y="177.68475" transform="rotate(-0 577.425575 177.68475)">4</text>
     </g>
    </g>
    <g id="xtick_12">
     <g id="line2d_38">
      <g>
       <use xlink:href="#mec8f689105" x="618.884968" y="163.68475" style="fill: #bac4ce; stroke: #bac4ce; stroke-width: 0.8"/>
      </g>
     </g>
     <g id="text_28">
      <text style="font-size: 10px; font-family: 'STIXGeneral', serif; text-anchor: middle" x="618.884968" y="177.68475" transform="rotate(-0 618.884968 177.68475)">6</text>
     </g>
    </g>
    <g id="text_29">
     <text style="font-size: 10px; font-family: 'STIXGeneral', serif; text-anchor: middle" x="573.29" y="191.68475" transform="rotate(-0 573.29 191.68475)">Query recovery updates (thousands)</text>
    </g>
   </g>
   <g id="matplotlib.axis_6">
    <g id="ytick_12">
     <g id="line2d_39">
      <path d="M 487.78 163.68475
L 658.8 163.68475
" clip-path="url(#p57027e24fa)" style="fill: none; stroke: #dce1e7; stroke-width: 0.6; stroke-linecap: square"/>
     </g>
     <g id="line2d_40">
      <g>
       <use xlink:href="#me7e6917ee4" x="487.78" y="163.68475" style="fill: #bac4ce; stroke: #bac4ce; stroke-width: 0.8"/>
      </g>
     </g>
     <g id="text_30">
      <text style="font-size: 10px; font-family: 'STIXGeneral', serif; text-anchor: end" x="481.28" y="167.43475" transform="rotate(-0 481.28 167.43475)">0</text>
     </g>
    </g>
    <g id="ytick_13">
     <g id="line2d_41">
      <path d="M 487.78 133.808323
L 658.8 133.808323
" clip-path="url(#p57027e24fa)" style="fill: none; stroke: #dce1e7; stroke-width: 0.6; stroke-linecap: square"/>
     </g>
     <g id="line2d_42">
      <g>
       <use xlink:href="#me7e6917ee4" x="487.78" y="133.808323" style="fill: #bac4ce; stroke: #bac4ce; stroke-width: 0.8"/>
      </g>
     </g>
     <g id="text_31">
      <text style="font-size: 10px; font-family: 'STIXGeneral', serif; text-anchor: end" x="481.28" y="137.558323" transform="rotate(-0 481.28 137.558323)">2</text>
     </g>
    </g>
    <g id="ytick_14">
     <g id="line2d_43">
      <path d="M 487.78 103.931897
L 658.8 103.931897
" clip-path="url(#p57027e24fa)" style="fill: none; stroke: #dce1e7; stroke-width: 0.6; stroke-linecap: square"/>
     </g>
     <g id="line2d_44">
      <g>
       <use xlink:href="#me7e6917ee4" x="487.78" y="103.931897" style="fill: #bac4ce; stroke: #bac4ce; stroke-width: 0.8"/>
      </g>
     </g>
     <g id="text_32">
      <text style="font-size: 10px; font-family: 'STIXGeneral', serif; text-anchor: end" x="481.28" y="107.681897" transform="rotate(-0 481.28 107.681897)">4</text>
     </g>
    </g>
    <g id="ytick_15">
     <g id="line2d_45">
      <path d="M 487.78 74.05547
L 658.8 74.05547
" clip-path="url(#p57027e24fa)" style="fill: none; stroke: #dce1e7; stroke-width: 0.6; stroke-linecap: square"/>
     </g>
     <g id="line2d_46">
      <g>
       <use xlink:href="#me7e6917ee4" x="487.78" y="74.05547" style="fill: #bac4ce; stroke: #bac4ce; stroke-width: 0.8"/>
      </g>
     </g>
     <g id="text_33">
      <text style="font-size: 10px; font-family: 'STIXGeneral', serif; text-anchor: end" x="481.28" y="77.80547" transform="rotate(-0 481.28 77.80547)">6</text>
     </g>
    </g>
    <g id="ytick_16">
     <g id="line2d_47">
      <path d="M 487.78 44.179044
L 658.8 44.179044
" clip-path="url(#p57027e24fa)" style="fill: none; stroke: #dce1e7; stroke-width: 0.6; stroke-linecap: square"/>
     </g>
     <g id="line2d_48">
      <g>
       <use xlink:href="#me7e6917ee4" x="487.78" y="44.179044" style="fill: #bac4ce; stroke: #bac4ce; stroke-width: 0.8"/>
      </g>
     </g>
     <g id="text_34">
      <text style="font-size: 10px; font-family: 'STIXGeneral', serif; text-anchor: end" x="481.28" y="47.929044" transform="rotate(-0 481.28 47.929044)">8</text>
     </g>
    </g>
    <g id="ytick_17">
     <g id="line2d_49">
      <path d="M 487.78 14.302617
L 658.8 14.302617
" clip-path="url(#p57027e24fa)" style="fill: none; stroke: #dce1e7; stroke-width: 0.6; stroke-linecap: square"/>
     </g>
     <g id="line2d_50">
      <g>
       <use xlink:href="#me7e6917ee4" x="487.78" y="14.302617" style="fill: #bac4ce; stroke: #bac4ce; stroke-width: 0.8"/>
      </g>
     </g>
     <g id="text_35">
      <text style="font-size: 10px; font-family: 'STIXGeneral', serif; text-anchor: end" x="481.28" y="18.052617" transform="rotate(-0 481.28 18.052617)">10</text>
     </g>
    </g>
    <g id="text_36">
     <text style="font-size: 10px; font-family: 'STIXGeneral', serif; text-anchor: middle" x="464.78" y="87.927487" transform="rotate(-90 464.78 87.927487)">Gripper errors (%)</text>
    </g>
   </g>
   <g id="line2d_51">
    <path d="M 504.871635 59.358011
L 515.236484 63.943802
L 525.601332 28.403924
L 535.966181 58.211563
L 546.331029 53.625773
L 556.695878 65.090249
L 567.060726 38.721953
L 577.425575 65.090249
L 587.790423 65.090249
L 598.155272 78.847622
L 608.52012 92.604994
L 618.884968 77.701174
L 629.249817 81.140517
L 639.614665 57.065116
L 649.979514 60.504459
" clip-path="url(#p57027e24fa)" style="fill: none; stroke: #65528c; stroke-width: 1.5; stroke-linecap: square"/>
    <defs>
     <path id="m8d98315611" d="M 0 2.25
C 0.596707 2.25 1.169055 2.012926 1.59099 1.59099
C 2.012926 1.169055 2.25 0.596707 2.25 0
C 2.25 -0.596707 2.012926 -1.169055 1.59099 -1.59099
C 1.169055 -2.012926 0.596707 -2.25 0 -2.25
C -0.596707 -2.25 -1.169055 -2.012926 -1.59099 -1.59099
C -2.012926 -1.169055 -2.25 -0.596707 -2.25 0
C -2.25 0.596707 -2.012926 1.169055 -1.59099 1.59099
C -1.169055 2.012926 -0.596707 2.25 0 2.25
z
" style="stroke: #65528c"/>
    </defs>
    <g clip-path="url(#p57027e24fa)">
     <use xlink:href="#m8d98315611" x="504.871635" y="59.358011" style="fill: #65528c; stroke: #65528c"/>
     <use xlink:href="#m8d98315611" x="515.236484" y="63.943802" style="fill: #65528c; stroke: #65528c"/>
     <use xlink:href="#m8d98315611" x="525.601332" y="28.403924" style="fill: #65528c; stroke: #65528c"/>
     <use xlink:href="#m8d98315611" x="535.966181" y="58.211563" style="fill: #65528c; stroke: #65528c"/>
     <use xlink:href="#m8d98315611" x="546.331029" y="53.625773" style="fill: #65528c; stroke: #65528c"/>
     <use xlink:href="#m8d98315611" x="556.695878" y="65.090249" style="fill: #65528c; stroke: #65528c"/>
     <use xlink:href="#m8d98315611" x="567.060726" y="38.721953" style="fill: #65528c; stroke: #65528c"/>
     <use xlink:href="#m8d98315611" x="577.425575" y="65.090249" style="fill: #65528c; stroke: #65528c"/>
     <use xlink:href="#m8d98315611" x="587.790423" y="65.090249" style="fill: #65528c; stroke: #65528c"/>
     <use xlink:href="#m8d98315611" x="598.155272" y="78.847622" style="fill: #65528c; stroke: #65528c"/>
     <use xlink:href="#m8d98315611" x="608.52012" y="92.604994" style="fill: #65528c; stroke: #65528c"/>
     <use xlink:href="#m8d98315611" x="618.884968" y="77.701174" style="fill: #65528c; stroke: #65528c"/>
     <use xlink:href="#m8d98315611" x="629.249817" y="81.140517" style="fill: #65528c; stroke: #65528c"/>
     <use xlink:href="#m8d98315611" x="639.614665" y="57.065116" style="fill: #65528c; stroke: #65528c"/>
     <use xlink:href="#m8d98315611" x="649.979514" y="60.504459" style="fill: #65528c; stroke: #65528c"/>
    </g>
   </g>
   <g id="patch_9">
    <path d="M 487.78 163.68475
L 487.78 12.170225
" style="fill: none; stroke: #bac4ce; stroke-width: 0.8; stroke-linejoin: miter; stroke-linecap: square"/>
   </g>
   <g id="patch_10">
    <path d="M 487.78 163.68475
L 658.8 163.68475
" style="fill: none; stroke: #bac4ce; stroke-width: 0.8; stroke-linejoin: miter; stroke-linecap: square"/>
   </g>
  </g>
  <g id="text_37">
   <text style="font-size: 8px; font-family: 'STIXGeneral', serif; text-anchor: start; fill: #596776" x="60.264" y="215.6472" transform="rotate(-0 60.264 215.6472)">Full decoder + input queries · native rotary buffers · 200 fixed held-out frames · offline errors, not task success</text>
  </g>
 </g>
 <defs>
  <clipPath id="pe075ad4895">
   <rect x="48.58" y="12.170225" width="171.02" height="151.514525"/>
  </clipPath>
  <clipPath id="p27766b24c3">
   <rect x="268.18" y="12.170225" width="171.02" height="151.514525"/>
  </clipPath>
  <clipPath id="p57027e24fa">
   <rect x="487.78" y="12.170225" width="171.02" height="151.514525"/>
  </clipPath>
 </defs>
</svg>
